<svg id="Capa_1" enable-background="new 0 0 511.961 511.961" height="512" viewBox="0 0 511.961 511.961" width="512" xmlns="http://www.w3.org/2000/svg"><path d="m379.372 305.754c5.299-6.863 8.465-15.465 8.465-24.799 0-22.374-18.141-40.576-40.438-40.576-.246 0-.489.014-.735.019l-28.261-91.455c25.214-11.798 37.691-41.308 27.931-67.981-4.999-13.66-15.003-24.538-28.172-30.63-13.118-6.067-27.807-6.655-41.366-1.651l-63.877 23.59c-6.785-8.972-14.38-17.312-22.695-24.862-7.162-6.503-17.246 4.603-10.083 11.105 8.823 8.011 16.768 16.991 23.696 26.722-38.661-17.763-100.063-15.528-161.817 5.656l-24.75-68.063c43.938-13.941 91.703-9.127 132.165 13.573 8.538 4.792 15.713-8.385 7.339-13.082-46.43-26.047-101.689-30.501-151.612-12.219-.022.008-.042.019-.064.027-.019.007-.038.011-.057.018-3.893 1.416-5.901 5.719-4.485 9.612l69.004 189.767c3.319 9.129 17.398 3.953 14.097-5.127l-6.427-17.675 149.667-54.809c2.737 17.975-6.687 39.375-27.159 61.175-23.235 24.742-57.679 46.691-97.551 62.268l-6.166-16.958c-3.307-9.093-17.402-3.965-14.097 5.127l38.671 106.35c1.398 3.848 5.788 5.883 9.627 4.48 76.793-28.123 123.445-102.951 119.76-180.925l54.39-20.086 27.544 89.132c-14.636 6.11-24.955 20.606-24.955 37.479 0 9.537 3.304 18.31 8.814 25.244l-113.177 190.761h-10.906c-9.674 0-9.674 15 0 15h39.114c9.674 0 9.674-15 0-15h-10.767l107.273-180.811c4.204 2.425 8.876 4.122 13.85 4.899v175.913h-12.057c-9.675 0-9.675 15 0 15h39.114c9.674 0 9.674-15 0-15h-12.057v-176.4c4.21-.938 8.174-2.532 11.781-4.676l71.154 119.903c4.999 8.427 17.797.598 12.899-7.654zm-332.224-200.757c57.591-19.66 116.154-22.096 150.808-5.964 10.975 5.11 18.947 11.749 23.817 19.781l-149.67 54.811zm84.917 233.531-24.752-68.072c42.059-16.39 78.563-39.696 103.358-66.099 10.672-11.363 18.707-22.818 24.023-34.043 5.412 70.914-34.772 139.879-102.629 168.214zm116.51-179.567c-1.717-12.889-4.824-25.786-9.44-38.495-4.516-12.435-10.376-24.332-17.405-35.46l60.259-22.254c9.791-3.61 20.4-3.188 29.874 1.194 9.525 4.406 16.764 12.279 20.383 22.17 6.826 18.654-1.344 39.218-18.33 48.309l-3.5-11.325c9.734-7.236 14.036-20.302 9.685-32.285 0 0 0 0 0-.001-2.573-7.085-7.746-12.736-14.565-15.911-6.797-3.164-14.417-3.488-21.457-.91-14.537 5.324-22.055 21.521-16.758 36.107 2.573 7.086 7.747 12.736 14.566 15.912 3.763 1.752 7.778 2.633 11.808 2.633.897 0 1.795-.054 2.691-.141l3.55 11.489zm49.611-46.125c-3.271 1.196-6.81 1.046-9.967-.423-3.181-1.481-5.595-4.121-6.798-7.434-2.481-6.833 1.026-14.414 7.817-16.901 1.46-.535 2.973-.801 4.481-.801 1.872 0 3.738.41 5.486 1.224 3.181 1.48 5.595 4.12 6.797 7.433 2.482 6.833-1.025 14.415-7.816 16.902zm49.213 142.543c14.027 0 25.438 11.474 25.438 25.576 0 6.788-2.649 12.963-6.955 17.546-.764.51-1.41 1.134-1.92 1.843-4.454 3.852-10.24 6.188-16.563 6.188-14.026 0-25.438-11.474-25.438-25.577 0-14.102 11.411-25.576 25.438-25.576z"/><path d="m504.604 496.961h-11.764l-22.287-37.557c-4.935-8.319-17.837-.666-12.899 7.654l17.745 29.902h-9.909c-9.675 0-9.675 15 0 15h39.114c9.674.001 9.674-14.999 0-14.999z"/><path d="m347.399 288.973c9.652 0 9.668-15 0-15-9.652 0-9.668 15 0 15z"/></svg>